Coordinates
version=1
nRows=27
nColumns=38
inDegrees=no

Units are S.I. units (second, meters, Newtons, ...)
If the header above contains a line with 'inDegrees', this indicates whether rotational values are in degrees (yes) or radians (no).

endheader
time	pelvis_tilt	pelvis_list	pelvis_rotation	pelvis_tx	pelvis_ty	pelvis_tz	hip_flexion_r	hip_adduction_r	hip_rotation_r	knee_angle_r	ankle_angle_r	subtalar_angle_r	mtp_angle_r	hip_flexion_l	hip_adduction_l	hip_rotation_l	knee_angle_l	ankle_angle_l	subtalar_angle_l	mtp_angle_l	lumbar_extension	lumbar_bending	lumbar_rotation	arm_flex_r	arm_add_r	arm_rot_r	elbow_flex_r	pro_sup_r	wrist_flex_r	wrist_dev_r	arm_flex_l	arm_add_l	arm_rot_l	elbow_flex_l	pro_sup_l	wrist_flex_l	wrist_dev_l
0.57	2.09835	1.39593	-0.664004	0.92185	0.15523	0.94969	5.6428e-05	0.202892	-0.162013	0.166269	-0.020132	0	0	0.206517	-0.306937	-0.141381	1.2592	-0.177329	0	0	-0.219427	0.144908	0.200481	0.135687	-0.369924	1.1359	0.398305	0.584729	0	0	-0.0974856	-0.196851	0.0966416	0.655856	1.55676	0	0
0.58	2.13083	1.39819	-0.699023	0.923262	0.162986	0.951212	-0.0195885	0.1988	-0.153711	0.154277	-0.0189182	0	0	0.232885	-0.298703	-0.129353	1.27548	-0.158232	0	0	-0.223901	0.138298	0.208257	0.136727	-0.36918	1.13333	0.396069	0.584787	0	0	-0.0902176	-0.195872	0.10022	0.65435	1.55792	0	0
0.59	2.16086	1.40053	-0.73185	0.924617	0.170691	0.952599	-0.0385255	0.194602	-0.145294	0.142284	-0.0181377	0	0	0.258068	-0.290761	-0.119606	1.2864	-0.142619	0	0	-0.227538	0.131968	0.21621	0.137503	-0.369344	1.12965	0.395332	0.585782	0	0	-0.0817732	-0.19469	0.103895	0.650776	1.55626	0	0
0.6	2.18921	1.40302	-0.763654	0.925919	0.178338	0.953861	-0.056312	0.189945	-0.137466	0.13116	-0.0173332	0	0	0.281713	-0.282994	-0.112492	1.29207	-0.127252	0	0	-0.230533	0.125837	0.224737	0.138158	-0.370416	1.125	0.395433	0.586173	0	0	-0.0722917	-0.193552	0.110115	0.645368	1.55289	0	0
0.61	2.21972	1.40598	-0.797385	0.927104	0.185991	0.955054	-0.0737508	0.184218	-0.129964	0.120172	-0.0157427	0	0	0.303578	-0.274538	-0.1076	1.29229	-0.110012	0	0	-0.233016	0.119328	0.232766	0.138963	-0.371897	1.12023	0.395827	0.585955	0	0	-0.0622127	-0.192822	0.118646	0.638181	1.54911	0	0
0.62	2.25768	1.40912	-0.838447	0.928212	0.19349	0.956345	-0.0915557	0.177162	-0.123456	0.108848	-0.0136914	0	0	0.322857	-0.264992	-0.105125	1.28677	-0.0910084	0	0	-0.236337	0.111738	0.240471	0.140645	-0.373415	1.11654	0.396054	0.587219	0	0	-0.0507918	-0.192546	0.129278	0.628627	1.54436	0	0
0.63	2.37917	1.40927	-0.966707	0.929934	0.200695	0.959469	-0.121604	0.160827	-0.112267	0.0950871	-0.0146407	0	0	0.327434	-0.250354	-0.113696	1.27361	-0.0801527	0	0	-0.252733	0.0921591	0.252098	0.143939	-0.371128	1.10669	0.391891	0.591505	0	0	-0.03411	-0.194309	0.143178	0.615421	1.53794	0	0
0.64	2.41165	1.41239	-1.00236	0.930877	0.207921	0.960393	-0.1361	0.154045	-0.106524	0.0854664	-0.0131542	0	0	0.345286	-0.242445	-0.115346	1.25969	-0.0604856	0	0	-0.254777	0.0853908	0.258832	0.146888	-0.373294	1.10338	0.391862	0.593993	0	0	-0.0230189	-0.194151	0.154454	0.606926	1.531	0	0
0.65	2.45023	1.41446	-1.04448	0.931826	0.215323	0.961298	-0.152584	0.147088	-0.0993608	0.074794	-0.0116557	0	0	0.358853	-0.234492	-0.119561	1.24062	-0.0423669	0	0	-0.25763	0.078335	0.265218	0.150147	-0.375734	1.10338	0.392642	0.597246	0	0	-0.0138586	-0.195066	0.168067	0.602191	1.51921	0	0
0.66	2.48827	1.41634	-1.08523	0.932641	0.222723	0.962102	-0.168087	0.140199	-0.0948311	0.0652646	-0.00863753	0	0	0.371094	-0.2263	-0.124498	1.21717	-0.0277086	0	0	-0.260389	0.0716399	0.269912	0.154085	-0.37785	1.10467	0.393217	0.599207	0	0	-0.00623299	-0.196176	0.180368	0.599567	1.50852	0	0
0.67	2.5263	1.41785	-1.12595	0.933447	0.230152	0.962848	-0.183511	0.133352	-0.0904359	0.0560992	-0.00408843	0	0	0.380839	-0.21944	-0.132474	1.18913	-0.0166852	0	0	-0.263211	0.0650107	0.27387	0.158222	-0.379201	1.10567	0.392817	0.599539	0	0	0.000222302	-0.197369	0.191352	0.597639	1.49803	0	0
0.68	2.56539	1.41861	-1.16784	0.934292	0.237606	0.963541	-0.199748	0.126684	-0.0851709	0.0463713	-0.000866509	0	0	0.387359	-0.213972	-0.143573	1.15717	-0.00658372	0	0	-0.26656	0.058337	0.277241	0.162615	-0.379983	1.10597	0.392143	0.597967	0	0	0.00566525	-0.19874	0.201139	0.596511	1.4873	0	0
0.69	2.53073	1.42224	-1.1344	0.934659	0.24573	0.962522	-0.208074	0.129422	-0.0809789	0.0382359	0.00435346	0	0	0.39928	-0.216366	-0.15229	1.12272	0.0112756	0	0	-0.259669	0.063168	0.279405	0.164092	-0.385063	1.10992	0.39711	0.594733	0	0	0.0053336	-0.198633	0.208662	0.599438	1.47958	0	0
0.7	2.64467	1.4197	-1.25149	0.935756	0.252539	0.964452	-0.229346	0.11268	-0.0781704	0.0315424	0.008746	0	0	0.394386	-0.203204	-0.171577	1.08198	0.0102807	0	0	-0.27326	0.0447836	0.280615	0.173006	-0.382185	1.11446	0.393422	0.592324	0	0	0.014345	-0.200708	0.214513	0.597495	1.4741	0	0
0.71	2.61519	1.4236	-1.22293	0.936044	0.26075	0.963224	-0.237295	0.114614	-0.0748692	0.0248388	0.0140784	0	0	0.401568	-0.2058	-0.185345	1.04068	0.0270045	0	0	-0.266807	0.0489277	0.281019	0.175383	-0.385781	1.12022	0.396639	0.59131	0	0	0.0128531	-0.200114	0.218386	0.601505	1.46868	0	0
0.72	2.64951	1.42486	-1.25891	0.936623	0.268189	0.963258	-0.249087	0.108016	-0.0720011	0.0205863	0.0186116	0	0	0.401131	-0.200942	-0.20397	0.994795	0.0361824	0	0	-0.269292	0.04272	0.280644	0.181342	-0.385508	1.12319	0.395682	0.589827	0	0	0.0165963	-0.199894	0.22006	0.600521	1.46483	0	0
0.73	2.74569	1.42237	-1.35733	0.937461	0.274855	0.964512	-0.264991	0.0930619	-0.0708202	0.0181601	0.0234548	0	0	0.392705	-0.188121	-0.226214	0.943577	0.0364183	0	0	-0.280839	0.0264574	0.279452	0.190508	-0.382015	1.123	0.391299	0.588805	0	0	0.0257161	-0.200214	0.220459	0.594714	1.46372	0	0
0.74	2.7098	1.42645	-1.32157	0.93747	0.283102	0.96292	-0.271788	0.0961763	-0.0687149	0.0133818	0.0305129	0	0	0.393402	-0.19014	-0.244113	0.89009	0.0506645	0	0	-0.274725	0.0321848	0.278555	0.192524	-0.38566	1.12491	0.394672	0.588785	0	0	0.0257207	-0.197755	0.221367	0.591896	1.46233	0	0
0.75	2.73983	1.42535	-1.35219	0.937691	0.290867	0.962663	-0.28588	0.0906807	-0.0677238	0.00867575	0.0365663	0	0	0.384093	-0.183606	-0.266443	0.831738	0.0549318	0	0	-0.278754	0.0278194	0.276901	0.197345	-0.386349	1.12672	0.394979	0.589506	0	0	0.0303841	-0.196352	0.224379	0.5858	1.46004	0	0
0.76	2.76207	1.42464	-1.37457	0.937758	0.298712	0.962132	-0.298881	0.0860999	-0.0666577	0.00468048	0.0417763	0	0	0.374314	-0.176649	-0.288457	0.771192	0.0568696	0	0	-0.281986	0.0247207	0.274995	0.20146	-0.38714	1.12671	0.394947	0.593471	0	0	0.035554	-0.194114	0.227493	0.577525	1.45631	0	0
0.77	2.83671	1.42032	-1.44961	0.938097	0.305886	0.962665	-0.315068	0.0740709	-0.0680428	0.0026361	0.046693	0	0	0.358311	-0.161255	-0.310694	0.707253	0.0510537	0	0	-0.292965	0.0123154	0.272043	0.208338	-0.38386	1.12197	0.390104	0.59998	0	0	0.0455834	-0.192549	0.228939	0.565552	1.45404	0	0
0.78	2.8495	1.42125	-1.46131	0.937879	0.313835	0.961614	-0.325112	0.0705008	-0.0690936	0.000188712	0.0525677	0	0	0.348067	-0.152817	-0.332748	0.641922	0.0529192	0	0	-0.294013	0.0107925	0.268928	0.211579	-0.383564	1.11505	0.387803	0.609197	0	0	0.0509198	-0.18974	0.229972	0.555674	1.45185	0	0
0.79	2.79995	1.42778	-1.4091	0.936951	0.322592	0.958954	-0.328703	0.0752316	-0.0706915	0	0.0614986	0	0	0.344397	-0.151623	-0.356773	0.576521	0.0639344	0	0	-0.284961	0.0205952	0.26568	0.211704	-0.388321	1.11272	0.391214	0.613388	0	0	0.0509358	-0.185465	0.231591	0.549144	1.44861	0	0
0.8	2.80067	1.43082	-1.40693	0.936262	0.330646	0.957331	-0.335528	0.0731132	-0.0739159	0	0.0697676	0	0	0.33586	-0.140563	-0.374099	0.508838	0.0688695	0	0	-0.283424	0.0216968	0.261184	0.215187	-0.390093	1.11157	0.391576	0.617844	0	0	0.0550226	-0.182901	0.234945	0.540393	1.44527	0	0
0.81	2.79452	1.43505	-1.39695	0.935421	0.338824	0.955442	-0.340973	0.0718791	-0.077456	0	0.0782924	0	0	0.327668	-0.127589	-0.38413	0.439032	0.0724037	0	0	-0.280303	0.0238877	0.255754	0.218782	-0.391531	1.11194	0.39094	0.621663	0	0	0.0579622	-0.180809	0.238913	0.533387	1.44134	0	0
0.82	2.7856	1.4391	-1.38379	0.934513	0.347139	0.953476	-0.346902	0.0710595	-0.0807369	0	0.0871372	0	0	0.317179	-0.112976	-0.387256	0.366138	0.0728729	0	0	-0.277013	0.0264252	0.24993	0.222601	-0.392755	1.11411	0.389728	0.623511	0	0	0.0603983	-0.17888	0.242946	0.527218	1.43651	0	0
0.83	2.77783	1.44238	-1.37134	0.933505	0.355612	0.951506	-0.353903	0.0702973	-0.0844948	0	0.0957304	0	0	0.303431	-0.0970492	-0.384802	0.29071	0.0687741	0	0	-0.274269	0.0289203	0.243843	0.22642	-0.394188	1.1186	0.388647	0.622992	0	0	0.0627226	-0.17717	0.247679	0.521013	1.42954	0	0
